<svg xmlns="http://www.w3.org/2000/svg" viewBox="0 0 64 64">
  <rect width="64" height="64" rx="12" fill="#3E2C1C"/>
  <g transform="translate(12, 8)">
    <!-- Book shape -->
    <path d="M4 6 C4 4, 6 2, 8 2 L32 2 C34 2, 36 4, 36 6 L36 42 C36 44, 34 46, 32 46 L8 46 C6 46, 4 44, 4 42 Z" fill="#FDF6E3" opacity="0.9"/>
    <!-- Book spine -->
    <path d="M4 6 L4 42" stroke="#C49A3C" stroke-width="3" stroke-linecap="round"/>
    <!-- Text lines -->
    <line x1="10" y1="12" x2="30" y2="12" stroke="#8B6914" stroke-width="2" opacity="0.4"/>
    <line x1="10" y1="18" x2="28" y2="18" stroke="#8B6914" stroke-width="2" opacity="0.3"/>
    <line x1="10" y1="24" x2="26" y2="24" stroke="#8B6914" stroke-width="2" opacity="0.3"/>
    <line x1="10" y1="30" x2="30" y2="30" stroke="#8B6914" stroke-width="2" opacity="0.2"/>
    <line x1="10" y1="36" x2="22" y2="36" stroke="#8B6914" stroke-width="2" opacity="0.2"/>
  </g>
</svg>
